<svg width="100" height="100" viewBox="0 0 100 100" fill="none" xmlns="http://www.w3.org/2000/svg">
<circle opacity="0.8" cx="50" cy="50" r="50" fill="#555555"/>
<path opacity="0.8" fill-rule="evenodd" clip-rule="evenodd" d="M54 26.5C54 24.567 52.433 23 50.5 23C48.567 23 47 24.567 47 26.5V47H26.5C24.567 47 23 48.567 23 50.5C23 52.433 24.567 54 26.5 54H47V74.5C47 76.433 48.567 78 50.5 78C52.433 78 54 76.433 54 74.5V54H74.5C76.433 54 78 52.433 78 50.5C78 48.567 76.433 47 74.5 47H54V26.5Z" fill="#F5F5F5"/>
</svg>
