<svg width="498" height="36" viewBox="0 0 498 36" fill="none" xmlns="http://www.w3.org/2000/svg">
<path d="M22.1779 16C22.1438 15.5739 21.984 15.2415 21.6985 15.0028C21.4172 14.7642 20.989 14.6449 20.4137 14.6449C20.0472 14.6449 19.7468 14.6896 19.5124 14.7791C19.2823 14.8643 19.1118 14.9815 19.0011 15.1307C18.8903 15.2798 18.8327 15.4503 18.8285 15.642C18.8199 15.7997 18.8476 15.9425 18.9116 16.0703C18.9797 16.1939 19.0863 16.3068 19.2312 16.4091C19.3761 16.5071 19.5614 16.5966 19.7873 16.6775C20.0131 16.7585 20.2816 16.831 20.5927 16.8949L21.6665 17.125C22.391 17.2784 23.011 17.4808 23.5266 17.7322C24.0422 17.9837 24.4641 18.2798 24.7922 18.6207C25.1204 18.9574 25.3611 19.3366 25.5145 19.7585C25.6722 20.1804 25.7532 20.6406 25.7574 21.1392C25.7532 22 25.538 22.7287 25.1118 23.3253C24.6857 23.9219 24.0763 24.3757 23.2837 24.6868C22.4954 24.9979 21.5472 25.1534 20.4393 25.1534C19.3015 25.1534 18.3086 24.9851 17.4606 24.6484C16.6168 24.3118 15.9606 23.794 15.4918 23.0952C15.0273 22.392 14.793 21.4929 14.7887 20.3977H18.1637C18.185 20.7983 18.2851 21.1349 18.4641 21.4077C18.6431 21.6804 18.8945 21.8871 19.2184 22.0277C19.5465 22.1683 19.9364 22.2386 20.3881 22.2386C20.7674 22.2386 21.0849 22.1918 21.3405 22.098C21.5962 22.0043 21.7901 21.8743 21.9222 21.7081C22.0543 21.5419 22.1225 21.3523 22.1268 21.1392C22.1225 20.9389 22.0565 20.7642 21.9286 20.615C21.805 20.4616 21.6005 20.3253 21.315 20.206C21.0295 20.0824 20.6438 19.9673 20.158 19.8608L18.854 19.5795C17.6949 19.3281 16.7809 18.9084 16.1118 18.3203C15.4471 17.728 15.1168 16.9204 15.1211 15.8977C15.1168 15.0668 15.3384 14.3402 15.7859 13.718C16.2376 13.0916 16.8618 12.6037 17.6587 12.2543C18.4599 11.9048 19.3782 11.7301 20.4137 11.7301C21.4705 11.7301 22.3846 11.9069 23.1559 12.2606C23.9272 12.6143 24.5217 13.1129 24.9393 13.7564C25.3611 14.3956 25.5742 15.1435 25.5785 16H22.1779Z" fill="#F5F5F5"/>
<path d="M56.4361 11.9091V25H53.4702L48.74 18.1221H48.6633V25H45.1094V11.9091H48.1264L52.7798 18.7614H52.8821V11.9091H56.4361Z" fill="#F5F5F5"/>
<path d="M76.1172 25V11.9091H85.5518V14.7727H79.6712V17.0227H85.066V19.8864H79.6712V22.1364H85.5263V25H76.1172Z" fill="#F5F5F5"/>
<path d="M108.715 25H104.88L109.201 11.9091H114.059L118.38 25H114.545L111.681 15.5142H111.579L108.715 25ZM107.999 19.8352H115.209V22.4943H107.999V19.8352Z" fill="#F5F5F5"/>
<path d="M137.641 25V11.9091H141.195V17.2017H141.374L145.311 11.9091H149.453L145.03 17.7386L149.555 25H145.311L142.371 20.0909L141.195 21.625V25H137.641Z" fill="#F5F5F5"/>
<path d="M168.508 25V11.9091H177.942V14.7727H172.062V17.0227H177.457V19.8864H172.062V22.1364H177.917V25H168.508Z" fill="#F5F5F5"/>
<path d="M197.705 25V11.9091H203.356C204.327 11.9091 205.177 12.0859 205.906 12.4396C206.635 12.7933 207.202 13.3025 207.606 13.9673C208.011 14.6321 208.214 15.429 208.214 16.3579C208.214 17.2954 208.005 18.0859 207.587 18.7294C207.174 19.3729 206.592 19.8587 205.842 20.1868C205.096 20.5149 204.225 20.679 203.228 20.679H199.853V17.9176H202.512C202.93 17.9176 203.285 17.8665 203.579 17.7642C203.878 17.6577 204.106 17.4893 204.263 17.2592C204.425 17.0291 204.506 16.7287 204.506 16.3579C204.506 15.9829 204.425 15.6783 204.263 15.4439C204.106 15.2052 203.878 15.0305 203.579 14.9197C203.285 14.8047 202.93 14.7471 202.512 14.7471H201.259V25H197.705ZM205.376 18.9915L208.648 25H204.787L201.591 18.9915H205.376Z" fill="#F5F5F5"/>
<path d="M256.371 16C256.337 15.5739 256.177 15.2415 255.892 15.0028C255.611 14.7642 255.182 14.6449 254.607 14.6449C254.241 14.6449 253.94 14.6896 253.706 14.7791C253.476 14.8643 253.305 14.9815 253.194 15.1307C253.084 15.2798 253.026 15.4503 253.022 15.642C253.013 15.7997 253.041 15.9425 253.105 16.0703C253.173 16.1939 253.28 16.3068 253.425 16.4091C253.569 16.5071 253.755 16.5966 253.981 16.6775C254.206 16.7585 254.475 16.831 254.786 16.8949L255.86 17.125C256.584 17.2784 257.204 17.4808 257.72 17.7322C258.236 17.9837 258.657 18.2798 258.986 18.6207C259.314 18.9574 259.554 19.3366 259.708 19.7585C259.866 20.1804 259.947 20.6406 259.951 21.1392C259.947 22 259.731 22.7287 259.305 23.3253C258.879 23.9219 258.27 24.3757 257.477 24.6868C256.689 24.9979 255.741 25.1534 254.633 25.1534C253.495 25.1534 252.502 24.9851 251.654 24.6484C250.81 24.3118 250.154 23.794 249.685 23.0952C249.221 22.392 248.986 21.4929 248.982 20.3977H252.357C252.378 20.7983 252.479 21.1349 252.657 21.4077C252.836 21.6804 253.088 21.8871 253.412 22.0277C253.74 22.1683 254.13 22.2386 254.581 22.2386C254.961 22.2386 255.278 22.1918 255.534 22.098C255.79 22.0043 255.983 21.8743 256.116 21.7081C256.248 21.5419 256.316 21.3523 256.32 21.1392C256.316 20.9389 256.25 20.7642 256.122 20.615C255.998 20.4616 255.794 20.3253 255.508 20.206C255.223 20.0824 254.837 19.9673 254.351 19.8608L253.047 19.5795C251.888 19.3281 250.974 18.9084 250.305 18.3203C249.64 17.728 249.31 16.9204 249.314 15.8977C249.31 15.0668 249.532 14.3402 249.979 13.718C250.431 13.0916 251.055 12.6037 251.852 12.2543C252.653 11.9048 253.572 11.7301 254.607 11.7301C255.664 11.7301 256.578 11.9069 257.349 12.2606C258.121 12.6143 258.715 13.1129 259.133 13.7564C259.555 14.3956 259.768 15.1435 259.772 16H256.371Z" fill="#F5F5F5"/>
<path d="M282.194 25H278.358L282.679 11.9091H287.537L291.858 25H288.023L285.159 15.5142H285.057L282.194 25ZM281.478 19.8352H288.688V22.4943H281.478V19.8352Z" fill="#F5F5F5"/>
<path d="M311.119 11.9091H315.542L318.585 19.3239H318.738L321.781 11.9091H326.204V25H322.727V17.4318H322.625L319.71 24.8977H317.613L314.699 17.3807H314.596V25H311.119V11.9091Z" fill="#F5F5F5"/>
<path d="M345.889 11.9091H350.312L353.355 19.3239H353.508L356.551 11.9091H360.974V25H357.497V17.4318H357.394L354.48 24.8977H352.383L349.468 17.3807H349.366V25H345.889V11.9091Z" fill="#F5F5F5"/>
<path d="M380.658 25V11.9091H384.212V22.1364H389.505V25H380.658Z" fill="#F5F5F5"/>
<path d="M416.689 11.9091H420.243V20.2954C420.243 21.2926 420.004 22.1555 419.527 22.8842C419.054 23.6087 418.393 24.169 417.545 24.5653C416.697 24.9574 415.713 25.1534 414.592 25.1534C413.463 25.1534 412.474 24.9574 411.626 24.5653C410.778 24.169 410.118 23.6087 409.645 22.8842C409.176 22.1555 408.941 21.2926 408.941 20.2954V11.9091H412.495V19.9886C412.495 20.3935 412.585 20.7557 412.764 21.0753C412.943 21.3906 413.19 21.6378 413.505 21.8168C413.825 21.9957 414.187 22.0852 414.592 22.0852C415.001 22.0852 415.363 21.9957 415.679 21.8168C415.994 21.6378 416.241 21.3906 416.42 21.0753C416.599 20.7557 416.689 20.3935 416.689 19.9886V11.9091Z" fill="#F5F5F5"/>
<path d="M451.258 11.9091V25H448.292L443.562 18.1221H443.486V25H439.932V11.9091H442.949L447.602 18.7614H447.704V11.9091H451.258Z" fill="#F5F5F5"/>
<path d="M479.441 16.2301C479.385 16.0043 479.298 15.8061 479.179 15.6356C479.059 15.4609 478.91 15.3139 478.731 15.1946C478.557 15.071 478.352 14.9794 478.118 14.9197C477.888 14.8558 477.634 14.8239 477.357 14.8239C476.76 14.8239 476.251 14.9666 475.829 15.2521C475.412 15.5376 475.092 15.9489 474.871 16.4858C474.653 17.0227 474.545 17.6704 474.545 18.429C474.545 19.196 474.649 19.8523 474.858 20.3977C475.067 20.9432 475.378 21.3608 475.791 21.6506C476.204 21.9403 476.718 22.0852 477.331 22.0852C477.873 22.0852 478.322 22.0064 478.68 21.8487C479.042 21.691 479.313 21.4673 479.492 21.1775C479.671 20.8878 479.76 20.5469 479.76 20.1548L480.374 20.2187H477.383V17.6875H483.187V19.5028C483.187 20.696 482.933 21.7166 482.426 22.5646C481.923 23.4084 481.228 24.0561 480.342 24.5078C479.46 24.9552 478.448 25.179 477.306 25.179C476.032 25.179 474.913 24.9084 473.95 24.3672C472.987 23.826 472.235 23.0547 471.694 22.0533C471.157 21.0518 470.888 19.8608 470.888 18.4801C470.888 17.3977 471.052 16.4389 471.38 15.6037C471.713 14.7685 472.173 14.0632 472.761 13.4879C473.349 12.9084 474.029 12.4716 474.8 12.1775C475.572 11.8793 476.398 11.7301 477.28 11.7301C478.056 11.7301 478.776 11.8409 479.441 12.0625C480.11 12.2798 480.7 12.5909 481.211 12.9957C481.727 13.3963 482.143 13.8714 482.458 14.4212C482.773 14.9709 482.965 15.5739 483.033 16.2301H479.441Z" fill="#F5F5F5"/>
<rect opacity="0.8" x="0.5" y="0.5" width="497" height="35" rx="7.5" stroke="#F5F5F5"/>
</svg>
